<svg xmlns:xlink="http://www.w3.org/1999/xlink" width="16" xmlns="http://www.w3.org/2000/svg" height="16" id="screenshot-9b84683a-2540-80d7-8002-9ed3efc12c94" viewBox="0 0 16 16" style="-webkit-print-color-adjust: exact;" fill="none" version="1.1"><g xmlns:xlink="http://www.w3.org/1999/xlink" width="800px" xml:space="preserve" height="800px" id="shape-9b84683a-2540-80d7-8002-9ed3efc12c94" style="fill: rgb(0, 0, 0);" ry="0" rx="0" version="1.1"><g id="shape-9b84683a-2540-80d7-8002-9ed3efc12c96"><style type="text/css" rx="0" ry="0" style="fill: rgb(0, 0, 0);"/></g><g id="shape-9b84683a-2540-80d7-8002-9ed3efc12c97" rx="0" ry="0" style="fill: rgb(0, 0, 0);"><g id="shape-9b84683a-2540-80d7-8002-9ed3efc12c98"><g class="fills" id="fills-9b84683a-2540-80d7-8002-9ed3efc12c98"><path class="st0" rx="0" ry="0" d="M9.237,7.571C9.285,7.708,9.309,7.854,9.309,8.000C9.309,8.041,9.307,8.081,9.303,8.122C9.272,9.411,8.753,10.624,7.842,11.536C6.898,12.480,5.642,13.000,4.305,13.001C4.167,13.001,4.029,12.995,3.891,12.984C4.098,13.643,4.465,14.248,4.958,14.741C5.770,15.553,6.850,16.000,8.000,16.000C9.150,16.000,10.235,15.547,11.057,14.726C11.647,14.135,12.048,13.391,12.216,12.573C12.224,12.535,12.230,12.504,12.236,12.474C12.282,12.216,12.305,11.954,12.305,11.695C12.305,10.545,11.855,9.461,11.037,8.644C10.536,8.143,9.917,7.774,9.237,7.571ZZ" style="fill: rgb(120, 138, 227); fill-opacity: 1;"/></g></g><g id="shape-9b84683a-2540-80d7-8002-9ed3efc12c99"><g class="fills" id="fills-9b84683a-2540-80d7-8002-9ed3efc12c99"><path class="st0" rx="0" ry="0" d="M6.763,8.429C6.715,8.292,6.691,8.146,6.691,8.000C6.691,7.959,6.693,7.920,6.696,7.881L6.697,7.868C6.729,6.584,7.248,5.374,8.158,4.464C9.102,3.520,10.359,3.000,11.695,2.999C11.834,2.999,11.972,3.005,12.109,3.016C11.903,2.357,11.536,1.753,11.044,1.261C10.231,0.448,9.150,0.000,8.000,0.000C6.850,0.000,5.770,0.448,4.956,1.261C4.359,1.859,3.954,2.607,3.785,3.427C3.779,3.458,3.772,3.491,3.766,3.524L3.750,3.616C3.714,3.844,3.695,4.075,3.695,4.305C3.695,5.455,4.143,6.536,4.956,7.349C5.461,7.854,6.082,8.224,6.763,8.429ZZ" style="fill: rgb(120, 138, 227); fill-opacity: 1;"/></g></g><g id="shape-9b84683a-2540-80d7-8002-9ed3efc12c9a"><g class="fills" id="fills-9b84683a-2540-80d7-8002-9ed3efc12c9a"><path class="st0" rx="0" ry="0" d="M14.740,4.957C14.143,4.360,13.394,3.954,12.572,3.784C12.542,3.778,12.512,3.772,12.482,3.767C12.221,3.720,11.958,3.696,11.694,3.695C10.545,3.695,9.463,4.143,8.650,4.956C8.146,5.460,7.775,6.081,7.571,6.763C7.708,6.716,7.853,6.691,7.999,6.691C8.040,6.691,8.079,6.693,8.119,6.695C9.412,6.727,10.621,7.244,11.529,8.152C12.478,9.101,13.000,10.359,13.000,11.695C13.000,11.833,12.994,11.972,12.984,12.109C13.642,11.902,14.247,11.536,14.739,11.044C15.552,10.230,16.000,9.149,16.000,8.000C16.000,6.850,15.553,5.769,14.740,4.957ZZ" style="fill: rgb(120, 138, 227); fill-opacity: 1;"/></g></g><g id="shape-9b84683a-2540-80d7-8002-9ed3efc12c9b"><g class="fills" id="fills-9b84683a-2540-80d7-8002-9ed3efc12c9b"><path class="st0" rx="0" ry="0" d="M7.350,11.044C7.854,10.540,8.224,9.919,8.429,9.237C8.291,9.284,8.146,9.309,7.999,9.309C7.963,9.309,7.927,9.307,7.893,9.303C6.603,9.279,5.383,8.760,4.464,7.841C3.519,6.896,2.999,5.640,3.000,4.305C3.000,4.168,3.005,4.029,3.016,3.891C2.359,4.097,1.754,4.463,1.262,4.956C0.448,5.769,0.000,6.850,0.000,8.000C0.000,9.150,0.446,10.229,1.254,11.038C1.854,11.637,2.606,12.044,3.428,12.215L3.531,12.236C3.781,12.282,4.042,12.305,4.305,12.305C5.455,12.305,6.537,11.857,7.350,11.044ZZ" style="fill: rgb(120, 138, 227); fill-opacity: 1;"/></g></g></g></g></svg>