<svg xmlns:xlink="http://www.w3.org/1999/xlink" width="512" xmlns="http://www.w3.org/2000/svg" height="512" id="screenshot-3f4ed25b-7a38-80dd-8002-9c509bfdf51c" viewBox="0 0 512 512" style="-webkit-print-color-adjust: exact;" fill="none" version="1.1"><g xmlns:xlink="http://www.w3.org/1999/xlink" width="800px" xml:space="preserve" height="800px" id="shape-3f4ed25b-7a38-80dd-8002-9c509bfdf51c" style="fill: rgb(0, 0, 0);" ry="0" rx="0" version="1.1"><g id="shape-3f4ed25b-7a38-80dd-8002-9c509bfecdbd"><style type="text/css" rx="0" ry="0" style="fill: rgb(0, 0, 0);"/></g><g id="shape-3f4ed25b-7a38-80dd-8002-9c509bff0d7f" rx="0" ry="0" style="fill: rgb(0, 0, 0);"><g id="shape-3f4ed25b-7a38-80dd-8002-9c509bffbf56"><g class="fills" id="fills-3f4ed25b-7a38-80dd-8002-9c509bffbf56"><path class="st0" rx="0" ry="0" d="M295.599,242.266C297.109,246.666,297.887,251.324,297.878,256.008C297.878,257.302,297.819,258.604,297.710,259.915C296.716,301.151,280.103,339.980,250.932,369.143C220.726,399.358,180.535,416.005,137.755,416.022C133.347,416.022,128.913,415.838,124.522,415.488C131.126,436.577,142.882,455.929,158.661,471.717C184.626,497.690,219.190,512.000,255.992,512.000C292.785,511.992,327.524,497.515,353.814,471.224C372.708,452.331,385.548,428.512,390.908,402.321C391.158,401.119,391.351,400.134,391.542,399.174C393.012,390.925,393.763,382.526,393.763,374.228C393.763,337.426,379.345,302.762,353.187,276.606C337.159,260.575,317.356,248.778,295.599,242.266ZZ" style="fill: rgb(120, 138, 227); fill-opacity: 1;"/></g></g><g id="shape-3f4ed25b-7a38-80dd-8002-9c509c0041e2"><g class="fills" id="fills-3f4ed25b-7a38-80dd-8002-9c509c0041e2"><path class="st0" rx="0" ry="0" d="M216.402,269.717C214.890,265.334,214.106,260.684,214.106,255.991C214.114,254.698,214.181,253.437,214.265,252.184L214.290,251.775C215.334,210.699,231.948,171.968,261.069,142.848C291.275,112.650,331.475,96.003,374.246,95.969C378.679,95.977,383.112,96.152,387.496,96.520C380.884,75.431,369.162,56.095,353.416,40.340C327.399,14.327,292.801,0.000,256.008,0.000C219.215,0.000,184.626,14.334,158.594,40.366C139.483,59.476,126.526,83.429,121.108,109.661C120.916,110.671,120.716,111.698,120.524,112.767L120.006,115.722C118.837,123.003,118.252,130.416,118.245,137.763C118.245,174.565,132.563,209.154,158.595,235.169C174.741,251.324,194.611,263.180,216.402,269.717ZZ" style="fill: rgb(120, 138, 227); fill-opacity: 1;"/></g></g><g id="shape-3f4ed25b-7a38-80dd-8002-9c509c009665"><g class="fills" id="fills-3f4ed25b-7a38-80dd-8002-9c509c009665"><path class="st0" rx="0" ry="0" d="M471.684,158.611C452.590,139.517,428.595,126.543,402.305,121.100C401.353,120.891,400.385,120.699,399.409,120.549C391.085,119.038,382.644,118.270,374.221,118.244C337.428,118.236,302.830,132.571,276.806,158.586C260.668,174.724,248.813,194.603,242.284,216.409C246.651,214.907,251.285,214.114,255.968,214.105C257.287,214.105,258.540,214.181,259.792,214.256C301.194,215.274,339.882,231.822,368.928,260.867C399.293,291.232,416.015,331.490,416.015,374.245C416.015,378.669,415.815,383.103,415.473,387.477C436.553,380.873,455.898,369.152,471.635,353.413C497.665,327.374,512.000,292.784,512.000,255.991C512.000,219.198,497.690,184.600,471.684,158.611ZZ" style="fill: rgb(239, 179, 219); fill-opacity: 1;"/></g></g><g id="shape-3f4ed25b-7a38-80dd-8002-9c509c0114a5"><g class="fills" id="fills-3f4ed25b-7a38-80dd-8002-9c509c0114a5"><path class="st0" rx="0" ry="0" d="M235.194,353.414C251.316,337.284,263.162,317.414,269.716,295.582C265.325,297.101,260.658,297.886,255.966,297.878C254.830,297.878,253.679,297.811,252.568,297.711C211.291,296.935,172.244,280.304,142.856,250.908C112.624,220.677,95.977,180.494,95.985,137.764C95.985,133.373,96.160,128.922,96.528,124.506C75.472,131.102,56.128,142.815,40.374,158.586C14.343,184.618,0.000,219.215,0.000,256.008C0.000,292.810,14.268,327.324,40.141,353.213C59.318,372.382,83.379,385.423,109.703,390.891L113.001,391.559C120.999,393.012,129.348,393.755,137.755,393.755C174.574,393.756,209.180,379.420,235.194,353.414ZZ" style="fill: rgb(239, 179, 219); fill-opacity: 1;"/></g></g></g></g></svg>