<?xml version="1.0" encoding="iso-8859-1"?>
<!-- Uploaded to: SVG Repo, www.svgrepo.com, Generator: SVG Repo Mixer Tools -->
<svg fill="#000000" height="800px" width="800px" version="1.1" id="Layer_1" xmlns="http://www.w3.org/2000/svg" xmlns:xlink="http://www.w3.org/1999/xlink" 
	 viewBox="0 0 511.844 511.844" xml:space="preserve">
<g>
	<g>
		<g>
			<path d="M413.166,315.576h-67.501c0.331-3.922-0.137-7.88-0.986-11.429c5.798-4.091,10.096-10.052,12.011-17.081
				c11.017,3.729,22.801,1.092,31.889-7.996c9.088-9.088,11.716-20.872,7.987-31.889c13.38-3.644,22.955-15.863,22.955-30.771
				c0-14.891-9.557-27.102-22.921-30.754c0.828-2.364,1.374-4.779,1.621-7.202c0.657-6.451-0.478-16.068-9.643-25.225
				c-9.353-9.361-20.924-11.913-32-7.791c-1.953-6.787-6.144-12.772-11.982-16.991c-0.253-1.188-0.562-2.372-0.96-3.546
				c13.38-3.635,22.955-15.855,22.955-30.763c0-14.891-9.557-27.102-22.912-30.763c3.857-11.187,1.203-23.185-8.038-32.427
				c-9.344-9.353-20.915-11.913-31.983-7.791C299.853,9.805,287.548,0,272.99,0c-14.601,0-26.948,9.873-30.703,23.296
				c-10.351-3.84-22.204-2.637-32.486,7.654c-10.283,10.283-11.494,22.135-7.654,32.486c-13.414,3.755-23.287,16.094-23.287,30.703
				c0,1.435,0.099,2.848,0.283,4.233c-9.896,3.369-17.62,11.474-20.46,21.602c-10.334-3.84-22.204-2.637-32.486,7.654
				c-9.259,9.25-10.223,18.961-9.395,25.472c0.29,2.347,0.879,4.693,1.741,7.006c-13.414,3.763-23.287,16.102-23.287,30.703
				c0,14.592,9.856,26.923,23.253,30.694c-0.819,2.236-1.374,4.506-1.664,6.793c-0.811,6.4,0.154,15.974,9.353,25.173
				c6.963,6.963,15.863,10.342,24.977,9.489c2.509-0.23,4.992-0.768,7.424-1.587c2.957,10.995,11.711,19.426,22.991,22.121
				c3.818,15.02,5.417,24.549,1.488,32.083H98.678c-12.1,0-21.956,9.847-21.956,21.956v7.287c0,12.109,9.856,21.956,21.956,21.956
				h5.76l51.152,44.758c2.236,1.86,8.934,6.443,20.002,6.443c3.635,0,7.723-2.816,12.041-5.794c3.439-2.381,6.997-4.83,11.128-6.528
				c15.863-6.554,28.527-7.791,42.598,6.289l33.399,35.422c2.842,3.379,8.073,4.992,14.362,4.736
				c8.431-0.358,15.394-4.753,19.746-8.38l12.971-10.812c9.02-7.518,21.837-8.516,31.915-2.475l16.521,9.566l6.101,3.635
				l27.128-76.861h9.664c12.109,0,21.956-9.847,21.956-21.956v-7.287C435.122,325.424,425.274,315.576,413.166,315.576z
				 M328.451,315.576h-52.547c1.844-7.054,3.932-16.736,4.903-27.195c2.27,0.324,4.579,0.389,6.9,0.178
				c2.509-0.23,4.992-0.768,7.424-1.587c3.61,13.423,15.855,23.04,30.797,23.04c0.847,0,1.682-0.04,2.51-0.101
				C328.79,311.953,328.875,313.997,328.451,315.576z M354.361,167.028c5.444-5.453,13.705-10.18,22.153-1.732
				c9.694,9.694,2.389,19.089-1.203,22.682c-2.654,2.654-3.268,6.724-1.51,10.044c1.101,2.082,3.9,5.427,10.129,4.215
				c1.033-0.205,2.97-0.631,4.25-0.631c8.004,0,14.276,6.502,14.276,14.805c0,8.311-6.272,14.814-14.276,14.814
				c-1.271,0-3.183-0.427-4.224-0.631c-6.229-1.178-9.011,2.099-10.121,4.156c-1.801,3.319-1.195,7.432,1.476,10.103
				c2.731,2.739,10.914,12.433,1.203,22.153c-9.728,9.719-19.413,1.527-22.153-1.203c-2.637-2.637-6.656-3.26-9.975-1.545
				c-2.116,1.101-5.487,3.883-4.284,10.163c0.196,1.033,0.631,2.97,0.631,4.25c0,8.004-6.502,14.276-14.805,14.276
				c-8.311,0-14.814-6.272-14.814-14.276c0-1.271,0.427-3.183,0.623-4.224c1.203-6.255-2.133-9.045-4.215-10.155
				c-1.263-0.666-2.628-0.99-3.994-0.99c-2.21,0-4.403,0.862-6.042,2.5c-3.311,3.302-7.441,5.41-11.332,5.76
				c-4.104,0.393-7.945-1.152-11.358-4.557c-3.507-3.516-4.975-7.1-4.489-10.965c0.461-3.661,2.671-7.629,6.229-11.187
				c2.671-2.671,3.277-6.784,1.476-10.103c-1.109-2.057-3.917-5.325-10.121-4.156c-1.041,0.205-2.953,0.631-4.224,0.631
				c-2.294,0-4.459-0.54-6.4-1.475c-0.241-0.17-0.489-0.333-0.751-0.479c-2.253-1.254-4.13-3.046-5.436-5.18l-0.041,0.025
				c-0.037-0.061-0.075-0.122-0.112-0.183l0.058-0.038c-0.529-0.896-0.973-1.903-1.502-3.567c-0.154-0.529-0.282-1.058-0.393-1.758
				c-0.128-0.7-0.239-1.417-0.239-2.159c0-8.166,6.647-14.805,14.814-14.805c1.28,0,3.208,0.427,4.25,0.631
				c6.212,1.212,9.028-2.125,10.129-4.215c1.758-3.32,1.143-7.39-1.51-10.044c-0.129-0.129-0.242-0.264-0.367-0.395
				c0.4-0.037,0.79-0.104,1.185-0.155c0.407-0.053,0.819-0.092,1.221-0.159c0.542-0.09,1.071-0.212,1.602-0.328
				c0.533-0.117,1.06-0.243,1.582-0.385c0.573-0.156,1.147-0.311,1.706-0.496c0.346-0.115,0.679-0.253,1.019-0.379
				c0.445-0.164,0.892-0.323,1.326-0.506c0.351-0.148,0.69-0.316,1.035-0.476c0.407-0.189,0.815-0.374,1.212-0.578
				c0.344-0.178,0.677-0.372,1.013-0.562c0.379-0.214,0.757-0.426,1.126-0.654c0.333-0.206,0.654-0.425,0.978-0.643
				c0.353-0.237,0.704-0.476,1.046-0.727c0.317-0.233,0.626-0.475,0.933-0.719c0.328-0.26,0.652-0.524,0.969-0.797
				c0.299-0.258,0.592-0.522,0.881-0.791c0.304-0.283,0.601-0.57,0.893-0.865c0.279-0.281,0.553-0.566,0.821-0.858
				c0.28-0.305,0.551-0.617,0.819-0.934c0.255-0.301,0.507-0.602,0.75-0.913c0.259-0.331,0.505-0.67,0.75-1.011
				c0.227-0.315,0.454-0.629,0.669-0.953c0.241-0.363,0.465-0.737,0.69-1.11c0.193-0.319,0.39-0.635,0.571-0.962
				c0.231-0.416,0.44-0.845,0.652-1.272c0.149-0.3,0.306-0.595,0.445-0.901c0.245-0.538,0.463-1.091,0.677-1.645
				c0.081-0.209,0.174-0.411,0.25-0.621c0.284-0.784,0.542-1.582,0.764-2.396c1.232,0.414,2.473,0.738,3.719,0.994
				c9.905,2.049,20.098-0.92,28.171-8.986c0.547-0.55,1.065-1.112,1.568-1.679c0.059-0.067,0.115-0.135,0.174-0.202
				c0.449-0.514,0.877-1.035,1.288-1.563c0.045-0.058,0.089-0.115,0.133-0.173c0.556-0.723,1.089-1.455,1.573-2.202
				c0.23,1.033,0.35,2.099,0.35,3.183c0,1.28-0.435,3.217-0.631,4.25c-1.203,6.281,2.167,9.062,4.284,10.163
				C347.696,170.296,351.715,169.665,354.361,167.028z M210.74,79.326c1.28,0,3.209,0.435,4.25,0.631
				c6.263,1.212,9.02-2.133,10.129-4.224c1.749-3.311,1.135-7.381-1.51-10.035c-3.669-3.669-11.196-13.227-1.741-22.682
				c9.463-9.438,19.021-1.929,22.69,1.732c2.628,2.628,6.664,3.26,9.967,1.545c2.116-1.101,5.495-3.883,4.284-10.163
				c-0.196-1.033-0.631-2.97-0.631-4.25c0-8.166,6.647-14.814,14.814-14.814c8.166,0,14.814,6.647,14.814,14.814
				c0,1.28-0.435,3.217-0.631,4.25c-1.212,6.281,2.167,9.062,4.284,10.163c3.302,1.715,7.33,1.084,9.967-1.545
				c5.453-5.444,13.713-10.172,22.153-1.732c3.61,3.601,5.154,7.339,4.736,11.435c-0.384,3.814-2.5,7.808-5.939,11.247
				c-2.645,2.654-3.26,6.724-1.51,10.035c1.109,2.091,3.891,5.41,10.129,4.224c1.041-0.196,2.978-0.631,4.25-0.631
				c8.013,0,14.285,6.511,14.285,14.814s-6.272,14.814-14.285,14.814c-1.271,0-3.208-0.435-4.241-0.64
				c-6.221-1.169-9.02,2.133-10.138,4.224c-1.749,3.311-1.135,7.381,1.51,10.035c1.67,1.67,5.358,5.928,5.784,11.199
				c0.003,0.098-0.008,0.194-0.002,0.292c0.06,0.962,0.011,1.902-0.148,2.821c-0.001,0.007-0.003,0.013-0.004,0.02
				c-0.065,0.375-0.16,0.746-0.262,1.115c-0.035,0.123-0.064,0.245-0.103,0.368c-0.101,0.324-0.221,0.645-0.35,0.965
				c-0.091,0.222-0.193,0.444-0.299,0.667c-0.062,0.131-0.128,0.261-0.195,0.392c-0.23,0.448-0.493,0.898-0.788,1.35
				c-0.054,0.082-0.1,0.164-0.156,0.246c-0.132,0.194-0.28,0.388-0.425,0.582c-0.147,0.196-0.297,0.392-0.456,0.586
				c-0.13,0.159-0.26,0.319-0.399,0.478c-0.281,0.322-0.575,0.642-0.889,0.961c-0.036,0.037-0.068,0.074-0.104,0.111
				c-0.56,0.561-1.121,1.056-1.679,1.502c-2.38,1.897-4.733,2.797-6.959,3.044c-6.293,0.697-11.565-3.813-13.492-5.727
				c-0.008-0.008-0.018-0.018-0.026-0.026c-0.986-0.986-2.169-1.691-3.437-2.096c-2.114-0.676-4.462-0.517-6.526,0.555
				c-0.651,0.339-1.421,0.838-2.141,1.548c-1.621,1.594-2.986,4.26-2.147,8.612c0.196,1.033,0.631,2.97,0.631,4.258
				c0,2-0.406,3.892-1.145,5.605c-2.221,5.139-7.439,8.666-13.666,8.666c-0.441,0-0.875-0.027-1.305-0.062
				c-0.158-0.014-0.316-0.026-0.474-0.046c-0.068-0.008-0.134-0.021-0.202-0.029c-1.777-0.247-3.532-0.824-5.233-1.727
				c-2.253-1.186-4.122-2.901-5.598-5.308c-0.486-0.828-0.887-1.715-1.203-2.697c-0.009-0.026-0.256-0.794-0.265-0.819
				c-0.263-1.025-0.422-1.907-0.49-2.719c-0.008-0.137-0.017-0.274-0.021-0.412c-0.007-0.152-0.018-0.306-0.018-0.454
				c0-1.289,0.435-3.226,0.631-4.258c0.847-4.422-0.574-7.1-2.227-8.685c-0.697-0.669-1.434-1.148-2.062-1.474
				c-0.371-0.191-0.753-0.343-1.138-0.477c-0.119-0.041-0.239-0.074-0.36-0.11c-0.279-0.083-0.56-0.152-0.844-0.206
				c-0.129-0.025-0.257-0.051-0.387-0.07c-0.344-0.049-0.689-0.078-1.035-0.084c-0.064-0.001-0.127-0.008-0.191-0.008
				c-0.364,0.001-0.726,0.034-1.086,0.081c-0.116,0.015-0.232,0.031-0.347,0.051c-0.349,0.061-0.695,0.139-1.035,0.242
				c-0.111,0.034-0.218,0.077-0.327,0.115c-0.265,0.093-0.525,0.199-0.781,0.318c-0.111,0.052-0.223,0.098-0.331,0.155
				c-0.313,0.162-0.616,0.348-0.91,0.551c-0.107,0.074-0.21,0.152-0.314,0.231c-0.264,0.2-0.519,0.414-0.761,0.647
				c-0.039,0.038-0.084,0.066-0.122,0.104c-5.503,5.512-14.752,9.138-22.688,1.205c-8.43-8.439-3.711-16.699,1.742-22.151
				c0.478-0.479,0.865-1.016,1.208-1.575c1.392-2.257,1.667-5.05,0.69-7.555c-0.118-0.305-0.233-0.611-0.388-0.905
				c-0.07-0.131-0.146-0.266-0.23-0.405c-0.913-1.531-2.675-3.474-5.871-3.952c-1.15-0.174-2.486-0.159-4.037,0.133
				c-0.27,0.053-0.602,0.123-0.967,0.196c-1.034,0.203-2.332,0.441-3.278,0.441c-0.338,0-0.679-0.017-1.027-0.049
				c-0.011-0.001-0.021-0.001-0.032-0.002c-1.076-0.101-2.218-0.357-3.523-0.786c-1.775-0.58-3.396-1.476-4.241-2.142
				c-0.188-0.179-0.384-0.358-0.589-0.529c-0.708-0.597-1.357-1.254-1.929-1.946c-0.589-0.708-1.109-1.468-1.553-2.287
				c-0.167-0.303-0.347-0.591-0.536-0.867c-0.877-1.89-1.38-3.987-1.38-6.203C195.926,85.973,202.573,79.326,210.74,79.326z
				 M174.58,253.07c0-1.271,0.427-3.183,0.623-4.224c1.203-6.255-2.133-9.045-4.215-10.155c-1.263-0.666-2.628-0.99-3.994-0.99
				c-2.21,0-4.403,0.862-6.042,2.5c-3.311,3.302-7.441,5.41-11.332,5.76c-4.113,0.384-7.945-1.152-11.358-4.557
				c-3.507-3.516-4.975-7.1-4.489-10.965c0.461-3.661,2.671-7.629,6.229-11.187c2.671-2.671,3.277-6.784,1.476-10.103
				c-1.109-2.057-3.917-5.325-10.121-4.156c-1.041,0.205-2.953,0.631-4.224,0.631c-8.166,0-14.814-6.647-14.814-14.814
				c0-8.166,6.647-14.805,14.814-14.805c1.28,0,3.209,0.427,4.25,0.632c6.212,1.195,9.02-2.125,10.129-4.216
				c1.758-3.319,1.143-7.39-1.51-10.044c-3.567-3.567-5.794-7.62-6.272-11.418c-0.512-4.019,0.973-7.706,4.531-11.264
				c9.463-9.455,19.021-1.929,22.69,1.732c2.654,2.654,6.733,3.26,10.035,1.51c2.082-1.101,5.419-3.9,4.215-10.146
				c-0.196-1.05-0.623-2.961-0.623-4.233c0-7.108,5.039-13.064,11.286-14.508c4.11,5.124,9.763,8.96,16.253,10.782
				c-0.502,1.384-0.903,2.778-1.201,4.175c-0.01,0.047-0.015,0.094-0.025,0.141c-0.135,0.65-0.253,1.3-0.344,1.95
				c-0.019,0.133-0.025,0.267-0.042,0.4c-0.071,0.565-0.137,1.13-0.175,1.694c-0.014,0.203-0.01,0.405-0.019,0.608
				c-0.023,0.495-0.047,0.991-0.044,1.485c0.002,0.25,0.023,0.5,0.031,0.75c0.015,0.446,0.023,0.893,0.059,1.337
				c0.022,0.279,0.067,0.557,0.098,0.836c0.046,0.414,0.083,0.828,0.147,1.239c0.044,0.285,0.111,0.568,0.164,0.852
				c0.076,0.403,0.142,0.808,0.236,1.208c0.06,0.257,0.141,0.512,0.208,0.768c0.112,0.424,0.216,0.85,0.347,1.271
				c0.061,0.194,0.139,0.385,0.204,0.578c0.161,0.481,0.321,0.962,0.509,1.437c0.03,0.075,0.067,0.148,0.097,0.223
				c1.581,3.905,4.049,7.628,7.428,11.01c2.426,2.424,4.983,4.337,7.612,5.802c0.051,0.028,0.101,0.063,0.152,0.091
				c0.291,0.16,0.586,0.294,0.878,0.443c0.39,0.199,0.778,0.408,1.171,0.588c0.016,0.007,0.032,0.013,0.048,0.02
				c6.786,3.087,13.953,3.321,20.596,1.495c0.649-0.177,1.293-0.375,1.931-0.591c1.866,6.984,6.081,12.924,11.784,17.037
				c0.073,0.328,0.165,0.654,0.25,0.98c0.077,0.296,0.141,0.594,0.226,0.889c0.209,0.718,0.442,1.432,0.699,2.141
				c-13.457,3.738-23.356,16.102-23.356,30.72c0,9.055,3.797,17.237,9.879,23.045c-0.494,0.663-1.057,1.31-1.687,1.949
				c-9.728,9.719-19.422,1.527-22.153-1.203c-2.637-2.637-6.665-3.26-9.975-1.544c-2.116,1.101-5.487,3.883-4.284,10.163
				c0.196,1.033,0.631,2.97,0.631,4.25c0,8.004-6.502,14.276-14.805,14.276C181.083,267.346,174.58,261.074,174.58,253.07z
				 M199.061,282.974c10.338-3.132,18.281-11.175,21.096-21.508c11.008,3.738,22.801,1.092,31.889-7.996
				c0.604-0.606,1.173-1.229,1.722-1.862c-0.156,0.761-0.294,1.523-0.391,2.289c-0.811,6.4,0.154,15.974,9.353,25.173
				c0.489,0.489,0.99,0.956,1.498,1.409c-0.505,13.987-3.894,27.679-6.04,35.097h-56.94
				C203.734,305.584,201.937,294.747,199.061,282.974z M418.055,344.82c0,2.697-2.193,4.89-4.89,4.89H98.678
				c-2.697,0-4.89-2.193-4.89-4.89v-7.287c0-2.697,2.193-4.89,4.89-4.89h314.487c2.697,0,4.89,2.193,4.89,4.89V344.82z"/>
			<path d="M409.524,494.776h-51.203l12.195-34.551l-25.429-15.087c-3.977-2.381-8.875-1.997-12.314,0.879l-12.979,10.812
				c-9.148,7.629-19.507,11.887-29.961,12.322c-11.75,0.546-21.888-3.319-27.836-10.47l-32.879-34.85
				c-6.673-6.665-10.65-7.842-23.851-2.406c-2.449,1.007-5.111,2.85-7.945,4.804c-5.99,4.13-12.774,8.815-21.726,8.815
				c-16.648,0-27.273-7.347-31.061-10.513l-31.275-27.162l-1.707-1.502l34.91,98.909H93.79c-4.71,0-8.533,3.823-8.533,8.533
				s3.823,8.533,8.533,8.533h58.698l0,0.001h199.808l0-0.001h57.227c4.71,0,8.533-3.823,8.533-8.533
				S414.234,494.776,409.524,494.776z"/>
			<path d="M272.99,128.002c18.825,0,34.133-15.309,34.133-34.133s-15.309-34.133-34.133-34.133s-34.133,15.309-34.133,34.133
				S254.166,128.002,272.99,128.002z M272.99,76.802c9.412,0,17.067,7.654,17.067,17.067s-7.654,17.067-17.067,17.067
				c-9.412,0-17.067-7.654-17.067-17.067S263.578,76.802,272.99,76.802z"/>
			<path d="M223.523,190.547c0-18.825-15.309-34.133-34.133-34.133s-34.133,15.309-34.133,34.133s15.309,34.133,34.133,34.133
				S223.523,209.371,223.523,190.547z M189.39,207.613c-9.412,0-17.067-7.654-17.067-17.067s7.654-17.067,17.067-17.067
				c9.412,0,17.067,7.654,17.067,17.067S198.802,207.613,189.39,207.613z"/>
			<path d="M291.79,216.147c0,18.825,15.309,34.133,34.133,34.133c18.825,0,34.133-15.309,34.133-34.133
				c0-18.825-15.309-34.133-34.133-34.133C307.099,182.013,291.79,197.322,291.79,216.147z M342.99,216.147
				c0,9.412-7.654,17.067-17.067,17.067c-9.412,0-17.067-7.654-17.067-17.067c0-9.412,7.654-17.067,17.067-17.067
				C335.336,199.08,342.99,206.735,342.99,216.147z"/>
		</g>
	</g>
</g>
</svg>