<?xml version="1.0" encoding="iso-8859-1"?>
<!-- Uploaded to: SVG Repo, www.svgrepo.com, Generator: SVG Repo Mixer Tools -->
<svg fill="#000000" height="800px" width="800px" version="1.1" id="Layer_1" xmlns="http://www.w3.org/2000/svg" xmlns:xlink="http://www.w3.org/1999/xlink" 
	 viewBox="0 0 512 512" xml:space="preserve">
<g>
	<g>
		<g>
			<path d="M136.533,341.333h3.533l64.734,64.734l45.167-45.167c3.337-3.336,8.73-3.336,12.066,0l45.167,45.167l64.734-64.734h3.533
				c4.719,0,8.533-3.823,8.533-8.533v-34.133c0-4.71-3.814-8.533-8.533-8.533H267.256c1.34-5.325,2.423-10.573,3.26-15.718
				c0.179-0.614,0.256-1.22,0.299-1.869c1.067-6.997,1.673-13.781,1.971-20.369c9.694-6.869,17.852-16.674,21.82-21.939
				c26.453-1.621,55.262-17.843,55.262-59.571c0-4.71-3.814-8.533-8.533-8.533c-38.007,0-58.428,19.686-59.52,56.721
				c-2.005,2.748-5.282,6.835-9.19,10.906c-1.033-16.887-3.831-31.676-6.391-43.648c10.086-3.26,17.809-11.213,20.557-21.393
				c2.355,0.794,4.753,1.314,7.168,1.536c9.088,0.862,17.656-2.432,24.695-9.463c9.079-9.088,11.716-20.873,7.987-31.889
				c13.389-3.644,22.963-15.855,22.963-30.771c0-14.891-9.557-27.102-22.912-30.754c3.849-11.196,1.203-23.194-8.038-32.435
				c-9.267-9.267-18.842-10.24-25.233-9.395c-2.27,0.299-4.523,0.853-6.733,1.672C282.906,9.83,270.583,0,256,0
				c-14.609,0-26.948,9.873-30.712,23.287c-10.342-3.857-22.204-2.637-32.478,7.654c-10.283,10.291-11.503,22.144-7.654,32.486
				c-13.423,3.763-23.287,16.102-23.287,30.703c0,14.601,9.856,26.931,23.262,30.694c-4.019,11.085-1.502,22.775,7.68,31.966
				c9.873,9.873,21.888,11.383,32.384,7.851c3.012,11.255,12.109,19.755,23.757,22.263c3.678,16.913,7.962,38.758,6.861,63.983
				c-3.396-3.337-6.485-6.033-8.653-7.799c-1.57-36.122-21.905-55.356-59.426-55.356c-4.719,0-8.533,3.823-8.533,8.533
				c0,42.462,29.833,58.496,56.661,59.622c3.55,2.859,11.273,9.583,17.434,17.98c-0.939,5.316-2.167,10.735-3.703,16.265H136.533
				c-4.719,0-8.533,3.823-8.533,8.533V332.8C128,337.51,131.814,341.333,136.533,341.333z M221.867,93.867
				c0-18.825,15.309-34.133,34.133-34.133s34.133,15.309,34.133,34.133C290.133,112.691,274.825,128,256,128
				S221.867,112.691,221.867,93.867z M145.067,307.2h110.908H256h0.026h110.908v17.067H145.067V307.2z"/>
			<path d="M409.6,494.933h-34.133v-81.801l-62.234,62.234c-1.664,1.664-3.849,2.5-6.033,2.5c-2.185,0-4.369-0.836-6.033-2.5
				L256,430.2l-45.167,45.167c-3.337,3.336-8.73,3.336-12.066,0l-62.234-62.234v81.801H102.4c-4.719,0-8.533,3.823-8.533,8.533
				S97.681,512,102.4,512h42.667h221.867H409.6c4.719,0,8.533-3.823,8.533-8.533S414.319,494.933,409.6,494.933z"/>
			<path d="M307.2,426.667c-2.185,0-4.369-0.836-6.033-2.5L256,379l-45.167,45.167c-3.337,3.336-8.73,3.336-12.066,0l-62.234-62.234
				v27.068l68.267,68.267l45.167-45.167c3.337-3.337,8.73-3.337,12.066,0l45.167,45.167l68.267-68.267v-27.068l-62.234,62.234
				C311.569,425.83,309.385,426.667,307.2,426.667z"/>
			<path d="M273.067,93.867c0-9.412-7.654-17.067-17.067-17.067c-9.412,0-17.067,7.654-17.067,17.067
				c0,9.412,7.654,17.067,17.067,17.067C265.412,110.933,273.067,103.279,273.067,93.867z"/>
		</g>
	</g>
</g>
</svg>