<?xml version="1.0" encoding="iso-8859-1"?>
<!-- Uploaded to: SVG Repo, www.svgrepo.com, Generator: SVG Repo Mixer Tools -->
<svg fill="#000000" height="800px" width="800px" version="1.1" id="Layer_1" xmlns="http://www.w3.org/2000/svg" xmlns:xlink="http://www.w3.org/1999/xlink" 
	 viewBox="0 0 511.997 511.997" xml:space="preserve">
<g>
	<g>
		<g>
			<path d="M47.726,338.441v1.909l112.97,66.221l91.153-49.716c2.569-1.414,5.727-1.414,8.305,0l91.101,49.69l113.013-67.81v-0.295
				c4.799,0,8.678-3.888,8.678-8.678v-34.712c0-4.799-3.879-8.678-8.678-8.678h-4.825c2.985-5.129,4.825-11.012,4.825-17.356
				c0-16.462-11.516-30.286-26.91-33.835c-2.881-12.488-12.566-22.302-24.88-25.609c0.208-7.316,0.087-14.64-0.33-21.868
				c4.452-2.291,7.914-4.018,10.066-5.077c3.02,0.599,6.075,0.989,9.155,0.989c7.645,0,15.334-1.796,22.198-5.302
				c9.346-4.764,21.764-15.074,27.908-37.142c1.284-4.625-1.423-9.407-6.031-10.691c-21.131-5.866-48.536-3.888-61.518,36.89
				c-0.946,0.46-2.065,1.015-3.367,1.666c-1.406-12.245-3.298-23.448-5.059-32.395c6.04-2.647,10.795-7.498,13.164-13.633
				c7.975,1.77,16.384-0.529,22.814-6.96c5.554-5.545,8.227-12.557,7.532-19.734c-0.095-1.041-0.269-2.083-0.503-3.107
				c9.311-3.636,15.759-12.713,15.759-23.595c0-10.856-6.404-19.916-15.681-23.569c1.909-8.131-0.434-16.592-7.107-23.257
				c-7.35-7.342-15.013-8.088-20.133-7.428c-0.946,0.122-1.883,0.295-2.82,0.538C414.787,6.587,405.666,0,395.044,0
				c-10.657,0-19.794,6.613-23.509,15.95c-8.227-2.057-16.696,0.208-23.318,6.838c-5.727,5.719-8.366,12.93-7.428,20.298
				c0.121,1.015,0.321,2.022,0.573,3.029c-9.329,3.723-15.941,12.852-15.941,23.5c0,10.639,6.604,19.76,15.933,23.491
				c-0.234,0.946-0.417,1.9-0.538,2.864c-0.651,5.137,0.104,12.783,7.402,20.081c5.502,5.51,12.54,8.192,19.855,7.506
				c1.128-0.095,2.239-0.278,3.35-0.538c2.803,7.255,8.93,12.731,16.618,14.848c2.438,12.01,5.233,28.767,6.526,46.714
				c-3.341-2.959-6.413-5.389-8.652-7.038c-0.816-11.021-3.402-23.812-12.722-33.427c-9.98-10.301-25.721-14.883-48.128-13.937
				c-4.79,0.191-8.504,4.235-8.313,9.025c0.902,21.851,8.834,37.046,23.569,45.16c9.954,5.484,21.391,6.682,31.31,6.682
				c1.128,0,2.178-0.052,3.263-0.078c4.894,3.515,13.59,10.648,19.274,18.658c-11.212,3.107-20.298,11.611-23.838,23.205
				c-0.26,0.85-1.258,1.475-2.369,1.475c-1.302,0-2.213-1.302-2.473-1.718c-4.643-7.463-13.616-12.974-23.621-14.891
				c-3.593-15.334-17.382-26.78-33.801-26.78c-5.78,0-11.455,1.484-16.488,4.226c-6.474-7.984-16.323-12.904-26.902-12.904
				c-16.462,0-30.286,11.524-33.827,26.928c-6.587,1.527-12.67,4.955-17.382,9.919c-6.621,6.968-9.997,16.115-9.494,25.747
				c0.182,3.558,1.111,6.942,2.386,10.197c-4.998-5.58-12.418-9.711-20.697-11.299c-2.951-12.557-12.774-22.398-25.235-25.583
				c-0.764-24.741,3.384-46.106,6.986-62.664c7.845-2.039,14.102-7.567,16.948-14.926c7.975,1.77,16.384-0.529,22.814-6.96
				c5.554-5.545,8.227-12.557,7.532-19.734c-0.095-1.041-0.269-2.083-0.503-3.107c9.311-3.636,15.759-12.713,15.759-23.595
				c0-10.856-6.404-19.916-15.681-23.569c1.909-8.131-0.434-16.592-7.107-23.257c-7.35-7.342-15.013-8.088-20.133-7.428
				c-0.946,0.121-1.883,0.295-2.82,0.538c-3.74-9.311-12.861-15.898-23.483-15.898c-10.657,0-19.794,6.613-23.509,15.95
				c-8.227-2.057-16.696,0.208-23.318,6.838c-5.727,5.719-8.366,12.93-7.428,20.298c0.122,1.015,0.321,2.022,0.573,3.029
				c-9.329,3.723-15.941,12.852-15.941,23.5c0,10.639,6.604,19.76,15.933,23.491c-0.234,0.946-0.417,1.901-0.538,2.864
				c-0.651,5.129,0.104,12.783,7.402,20.081c5.502,5.51,12.54,8.192,19.855,7.506c1.128-0.095,2.239-0.278,3.35-0.538
				c2.326,6.023,6.951,10.821,12.843,13.494c-2.005,9.329-4.079,20.072-5.467,32.03c-1.111-0.547-2.091-1.024-2.924-1.423
				c-4.044-12.731-9.494-22.32-16.748-28.854c-11.481-10.353-26.52-13.034-44.709-7.975c-4.617,1.284-7.316,6.066-6.04,10.691
				c8.912,31.996,31.831,42.366,50.436,42.366c3.133,0,6.057-0.382,8.86-0.92c2.065,0.998,5.398,2.638,9.693,4.834
				c-0.148,4.304-0.139,8.765-0.009,13.312c-2.664,0.72-5.25,1.736-7.68,3.055c-6.474-7.984-16.323-12.904-26.902-12.904
				c-16.462,0-30.286,11.524-33.827,26.928c-6.587,1.527-12.67,4.955-17.382,9.919c-6.621,6.968-9.997,16.115-9.494,25.747
				c0.295,5.675,2.143,10.891,4.938,15.508h-4.981c-4.799,0-8.678,3.879-8.678,8.678v34.712
				C39.048,334.553,42.927,338.441,47.726,338.441z M458.706,145.356c0.911,0,1.848,0.043,2.812,0.113
				c-3.74,8.097-9.042,13.928-15.846,17.391c-3.975,2.039-8.504,3.176-13.017,3.367
				C438.443,152.029,446.722,145.356,458.706,145.356z M348.695,169.151c-7.272-4-11.785-11.116-13.668-21.651
				c12.123,0.529,20.576,3.402,25.695,8.695c3.784,3.896,6.135,9.433,7.307,17.425C361.357,173.36,354.362,172.275,348.695,169.151z
				 M94.058,162.842c7.758-0.607,14.119,1.336,19.144,5.858c3.81,3.436,7.021,8.357,9.702,14.909
				C113.08,183.261,101.235,178.358,94.058,162.842z M386.714,69.424c0-4.643,3.766-8.409,8.409-8.409s8.409,3.766,8.409,8.409
				s-3.766,8.4-8.409,8.4S386.714,74.066,386.714,69.424z M160.817,78.562c4.643,0,8.409,3.766,8.409,8.409s-3.766,8.4-8.409,8.4
				s-8.409-3.758-8.409-8.4S156.175,78.562,160.817,78.562z M69.855,257.067c3.306-3.489,7.775-5.406,12.583-5.406
				c4.799,0,8.678-3.888,8.678-8.678c0-9.572,7.793-17.356,17.356-17.356c7.185,0,13.694,4.573,16.202,11.385
				c1.041,2.829,3.489,4.92,6.439,5.51c2.977,0.607,6.023-0.391,8.071-2.603c3.358-3.627,7.854-5.615,12.678-5.615
				c9.572,0,17.356,7.784,17.356,17.356c0,4.79,3.879,8.678,8.678,8.678c7.515,0,14.371,3.792,16.662,7.463
				c3.844,6.187,10.283,9.893,17.2,9.893c8.201,0,15.542-5.077,18.441-12.47c0.217-0.469,0.417-0.955,0.521-1.293
				c2.248-7.342,8.912-12.271,16.601-12.271c9.572,0,17.356,7.784,17.356,17.356c0,4.79,3.879,8.678,8.678,8.678
				c1.449,0,2.829,0.226,4.174,0.564c0.399,0.095,0.781,0.234,1.172,0.364c0.955,0.312,1.883,0.703,2.76,1.172
				c0.347,0.182,0.703,0.356,1.033,0.564c1.137,0.712,2.213,1.501,3.15,2.447c0.052,0.052,0.095,0.122,0.148,0.174
				c0.876,0.911,1.631,1.927,2.3,3.011c0.078,0.121,0.13,0.252,0.208,0.382H83.913c-9.902,0-18.328-7.368-18.805-16.41
				C64.857,265.129,66.54,260.556,69.855,257.067z M56.404,303.729h27.509h215.474h130.169h26.034v17.356H56.404V303.729z"/>
			<path d="M481.625,494.641h-17.356v-83.604l-108.344,65.007c-2.655,1.588-5.927,1.649-8.626,0.182l-91.301-49.803l-91.301,49.803
				c-1.302,0.703-2.725,1.059-4.157,1.059c-1.536,0-3.072-0.408-4.434-1.215L47.727,411.714v82.927H30.371
				c-4.799,0-8.678,3.888-8.678,8.678s3.879,8.678,8.678,8.678h26.034h399.186h26.034c4.799,0,8.678-3.888,8.678-8.678
				S486.424,494.641,481.625,494.641z"/>
			<path d="M347.303,424.157l-91.301-49.803l-91.31,49.803c-1.293,0.712-2.716,1.059-4.148,1.059c-1.519,0-3.037-0.399-4.391-1.189
				L47.731,360.47v31.067l112.987,67.089l91.127-49.707c2.577-1.414,5.727-1.414,8.305,0l91.101,49.69l113.022-67.81v-31.831
				l-108.353,65.007C353.265,425.554,350.002,425.633,347.303,424.157z"/>
		</g>
	</g>
</g>
</svg>