<svg xmlns:xlink="http://www.w3.org/1999/xlink" width="512.001" xmlns="http://www.w3.org/2000/svg" height="624.001" id="screenshot-3f4ed25b-7a38-80dd-8002-9c509c606c6c" viewBox="0 0 512.001 624.001" style="-webkit-print-color-adjust: exact;" fill="none" version="1.1"><g xmlns:xlink="http://www.w3.org/1999/xlink" width="800px" xml:space="preserve" height="800px" id="shape-3f4ed25b-7a38-80dd-8002-9c509c606c6c" style="fill: rgb(0, 0, 0);" ry="0" rx="0" version="1.1"><g id="shape-3f4ed25b-7a38-80dd-8002-9c509c60f4bb" rx="0" ry="0" style="fill: rgb(0, 0, 0);"><g id="shape-3f4ed25b-7a38-80dd-8002-9c509c60f4bc" rx="0" ry="0" style="fill: rgb(0, 0, 0);"><g id="shape-3f4ed25b-7a38-80dd-8002-9c509c611396" rx="0" ry="0" style="fill: rgb(0, 0, 0);"><g id="shape-3f4ed25b-7a38-80dd-8002-9c509c62c294"><g class="fills" id="fills-3f4ed25b-7a38-80dd-8002-9c509c62c294"><path rx="0" ry="0" d="M427.539,409.891L265.307,409.891L265.307,382.060C265.307,382.029,265.312,381.999,265.312,381.968C265.312,381.846,265.308,381.725,265.307,381.603L265.307,353.613C317.427,348.892,358.403,304.961,358.403,251.641C358.403,246.493,354.233,242.323,349.085,242.323C314.494,242.323,283.856,259.570,265.308,285.914L265.308,241.537C291.687,237.091,311.854,214.104,311.854,186.473L311.854,139.890C311.854,124.511,299.343,112.000,283.964,112.000L228.035,112.000C212.656,112.000,200.145,124.511,200.145,139.890L200.145,186.473C200.145,214.104,220.306,237.092,246.690,241.537L246.690,323.150C228.142,296.806,197.504,279.559,162.913,279.559C157.765,279.559,153.595,283.729,153.595,288.877C153.595,342.197,194.571,386.128,246.691,390.849L246.691,409.891L84.453,409.891C71.253,409.891,60.510,420.634,60.510,433.843L60.510,441.793C60.510,455.003,71.253,465.745,84.453,465.745L90.741,465.745L146.543,514.572C148.982,516.601,156.290,521.600,168.363,521.600C172.329,521.600,176.788,518.528,181.498,515.279C185.250,512.682,189.131,510.010,193.637,508.158C210.943,501.009,224.757,499.659,240.108,515.019L276.544,553.661C279.644,557.347,285.350,559.107,292.211,558.828C301.408,558.437,309.005,553.643,313.752,549.686L327.902,537.891C337.742,529.690,351.724,528.601,362.718,535.191L380.740,545.626L387.396,549.592L416.991,465.744L427.538,465.744C440.738,465.744,451.490,455.001,451.490,441.792L451.490,433.842C451.491,420.634,440.739,409.891,427.539,409.891ZL427.539,409.891ZM339.198,261.527C335.376,293.961,312.942,320.767,282.910,330.978L299.816,314.072C303.456,310.432,303.456,304.549,299.816,300.909C296.176,297.269,290.293,297.269,286.653,300.909L269.742,317.820C279.949,287.783,306.769,265.357,339.198,261.527ZL339.198,261.527ZM218.762,186.473L218.762,139.890C218.762,134.779,222.923,130.618,228.034,130.618L283.963,130.618C289.074,130.618,293.235,134.779,293.235,139.890L293.235,186.473C293.235,207.009,276.534,223.709,255.999,223.709C235.463,223.709,218.762,207.009,218.762,186.473ZL218.762,186.473ZM172.798,298.764C205.262,302.598,232.102,325.068,242.285,355.154L225.213,338.137C221.573,334.507,215.680,334.516,212.050,338.156C208.429,341.796,208.438,347.688,212.069,351.319L228.989,368.185C199.005,357.948,176.615,331.163,172.798,298.764ZL172.798,298.764ZM432.873,441.793C432.873,444.735,430.481,447.127,427.539,447.127L84.453,447.127C81.521,447.127,79.128,444.735,79.128,441.793L79.128,433.843C79.128,430.901,81.520,428.509,84.453,428.509L427.539,428.509C430.481,428.509,432.873,430.901,432.873,433.843L432.873,441.793ZL432.873,441.793Z" style="fill: rgb(120, 138, 227);"/></g></g><g id="shape-3f4ed25b-7a38-80dd-8002-9c509c63f62f"><g class="fills" id="fills-3f4ed25b-7a38-80dd-8002-9c509c63f62f"><path rx="0" ry="0" d="M423.561,605.382L367.703,605.382L381.006,567.690L353.265,551.232C348.927,548.635,343.584,549.054,339.832,552.191L325.673,563.986C315.694,572.308,304.392,576.954,292.989,577.428C280.170,578.024,269.111,573.807,262.623,566.006L226.755,527.988C219.475,520.718,215.137,519.433,200.736,525.363C198.064,526.461,195.160,528.472,192.069,530.604C185.534,535.110,178.133,540.220,168.368,540.220C150.206,540.220,138.616,532.205,134.483,528.751L100.365,499.120L98.503,497.482L136.587,605.383L79.125,605.383C73.977,605.383,69.816,609.553,69.816,614.692C69.816,619.831,73.977,624.000,79.125,624.000L143.159,624.000L143.159,624.001L361.131,624.001L361.131,624.000L423.560,624.000C428.708,624.000,432.869,619.830,432.869,614.691C432.869,609.552,428.709,605.382,423.561,605.382ZZ" style="fill: rgb(239, 179, 219);"/></g></g></g></g></g><g id="shape-3f4ed25b-7a38-80dd-8002-9c509c402b1d" width="1em" height="1em" rx="0" ry="0" style="fill: rgb(0, 0, 0);"><g id="shape-3f4ed25b-7a38-80dd-8002-9c509c42746a"><g class="fills" id="fills-3f4ed25b-7a38-80dd-8002-9c509c42746a"><path rx="0" ry="0" d="M342.775,59.745C340.971,56.873,337.553,55.451,334.245,56.195C324.925,58.290,315.715,60.695,306.880,63.305C289.350,68.500,272.215,75.265,252.955,84.600C243.645,89.125,239.955,91.275,228.955,97.665L226.705,99.000C210.230,108.500,198.160,119.000,189.810,131.145C180.645,144.445,176.000,160.000,176.000,177.320C176.000,197.690,183.855,215.870,198.120,228.505C212.500,241.260,232.530,248.000,256.000,248.000C279.380,248.000,299.445,240.835,314.000,227.285C328.175,214.110,336.000,195.590,336.000,175.140C336.000,162.640,332.905,151.640,329.915,141.030C323.620,118.685,318.185,99.385,342.270,68.965C344.374,66.309,344.576,62.615,342.775,59.745ZZM237.500,59.775C212.230,46.040,178.730,40.345,177.315,40.110C173.517,39.487,169.813,41.657,168.500,45.275C167.493,48.214,168.225,51.471,170.395,53.695C186.315,70.585,186.825,88.090,184.720,106.010C184.608,106.956,185.110,107.869,185.970,108.280C186.826,108.688,187.846,108.507,188.510,107.830C196.705,99.575,206.695,92.070,218.710,85.135L220.950,83.835C232.000,77.400,236.115,75.000,246.000,70.205L247.345,69.555C247.978,69.251,248.406,68.638,248.472,67.938C248.537,67.239,248.231,66.556,247.665,66.140C244.423,63.793,241.027,61.666,237.500,59.775ZZM245.130,45.725C246.850,46.660,248.675,47.725,250.580,48.870C255.863,52.109,260.815,55.858,265.365,60.065C265.941,60.602,266.779,60.751,267.505,60.445C278.875,55.642,290.501,51.469,302.330,47.945C304.663,47.255,307.010,46.588,309.370,45.945C309.945,45.787,310.419,45.381,310.663,44.838C310.908,44.294,310.898,43.670,310.635,43.135C306.500,34.720,303.300,28.685,303.060,28.240C301.671,25.631,298.956,24.000,296.000,24.000C295.045,24.000,279.360,24.180,257.565,34.650C253.039,36.829,248.635,39.251,244.370,41.905C243.759,42.281,243.396,42.955,243.419,43.672C243.442,44.389,243.846,45.039,244.480,45.375ZM232.665,30.395C236.315,28.010,240.035,25.785,243.790,23.740C244.089,23.577,244.285,23.273,244.310,22.933C244.334,22.593,244.183,22.264,243.910,22.060C230.910,12.275,219.045,8.560,218.335,8.350C215.087,7.358,211.567,8.525,209.555,11.260C205.880,16.368,202.654,21.785,199.915,27.450C199.784,27.719,199.780,28.033,199.905,28.305C200.030,28.577,200.270,28.779,200.560,28.855C207.365,30.640,215.260,33.000,223.365,36.000C223.662,36.110,223.994,36.073,224.260,35.900Z" style="fill: rgb(120, 138, 227);"/></g></g></g></g></svg>