<svg xmlns:xlink="http://www.w3.org/1999/xlink" width="390.98" xmlns="http://www.w3.org/2000/svg" height="555.557" id="screenshot-c0ef6847-c6cd-80d4-8002-9d5c565edcf6" viewBox="0 0 390.98 555.557" style="-webkit-print-color-adjust: exact;" fill="none" version="1.1"><g id="shape-c0ef6847-c6cd-80d4-8002-9d5c565edcf6" width="512.001" version="1.1" height="650.001" rx="0" ry="0" style="fill: rgb(0, 0, 0);"><g id="shape-c0ef6847-c6cd-80d4-8002-9d5c566035d9" ry="0" rx="0" style="fill: rgb(0, 0, 0);"><g id="shape-c0ef6847-c6cd-80d4-8002-9d5c56607790" ry="0" rx="0" style="fill: rgb(0, 0, 0);"><g id="shape-c0ef6847-c6cd-80d4-8002-9d5c56607791" ry="0" rx="0" style="fill: rgb(0, 0, 0);"><g id="shape-c0ef6847-c6cd-80d4-8002-9d5c56607792" rx="0" ry="0" style="fill: rgb(0, 0, 0);"><g id="shape-c0ef6847-c6cd-80d4-8002-9d5c56607793" class="fills" rx="0" ry="0" style="fill: rgb(0, 0, 0);"><g id="shape-c0ef6847-c6cd-80d4-8002-9d5c5662c69e"><g class="fills" id="fills-c0ef6847-c6cd-80d4-8002-9d5c5662c69e"><path rx="0" ry="0" d="M204.797,341.446L186.182,341.446L23.943,341.446C10.743,341.446,0.000,352.190,0.000,365.399L0.000,373.349C0.000,386.559,10.743,397.300,23.943,397.300L30.230,397.300L86.033,446.128C88.472,448.157,95.781,453.155,107.854,453.155C111.820,453.155,116.278,450.084,120.988,446.835C124.740,444.238,128.621,441.566,133.127,439.714C150.433,432.565,164.247,431.215,179.598,446.575L216.035,485.216C219.135,488.902,224.840,490.663,231.701,490.384C240.898,489.993,248.495,485.198,253.242,481.241L267.393,469.446C277.233,461.245,291.215,460.157,302.209,466.747L320.230,477.183L326.887,481.147L356.480,397.300L367.027,397.300C380.227,397.300,390.980,386.558,390.980,373.349L390.980,365.397C390.981,352.189,380.229,341.446,367.029,341.446L204.797,341.446ZZM23.943,360.065L367.029,360.065C369.971,360.065,372.363,362.457,372.363,365.399L372.363,373.349C372.363,376.291,369.971,378.683,367.029,378.683L23.943,378.683C21.011,378.683,18.619,376.291,18.619,373.349L18.619,365.399C18.619,362.457,21.010,360.065,23.943,360.065ZZ" style="-webkit-print-color-adjust: exact; fill: rgb(164, 149, 223); fill-opacity: 1;"/></g></g><g id="shape-c0ef6847-c6cd-80d4-8002-9d5c566438c9"><g class="fills" id="fills-c0ef6847-c6cd-80d4-8002-9d5c566438c9"><path rx="0" ry="0" d="M195.488,169.759C184.238,169.759,172.988,170.870,186.180,173.093L186.180,254.706C167.632,228.362,136.993,211.114,102.402,211.114C97.254,211.114,93.086,215.285,93.086,220.433C93.086,273.753,134.062,317.684,186.182,322.405L186.182,341.446L204.797,341.446L204.797,313.616C204.797,313.585,204.803,313.555,204.803,313.524C204.803,313.402,204.798,313.281,204.797,313.159L204.797,285.169C256.917,280.448,297.893,236.516,297.893,183.196C297.893,178.048,293.724,173.878,288.576,173.878C253.985,173.878,223.347,191.126,204.799,217.470L204.799,173.093C217.988,170.870,206.738,169.759,195.488,169.759ZZM278.688,193.083C274.866,225.517,252.432,252.323,222.400,262.534L239.307,245.628C242.947,241.988,242.947,236.104,239.307,232.464C235.667,228.824,229.783,228.824,226.143,232.464L209.232,249.376C219.439,219.339,246.259,196.913,278.688,193.083ZZM112.289,230.319C144.753,234.153,171.592,256.624,181.775,286.710L164.703,269.692C161.063,266.062,155.171,266.072,151.541,269.712C147.920,273.352,147.928,279.243,151.559,282.874L168.479,299.741C138.495,289.504,116.106,262.718,112.289,230.319ZZ" style="-webkit-print-color-adjust: exact; fill: rgb(143, 212, 130); fill-opacity: 1;"/></g></g></g></g><g id="shape-c0ef6847-c6cd-80d4-8002-9d5c56646268" rx="0" ry="0" style="fill: rgb(0, 0, 0);"><g id="shape-c0ef6847-c6cd-80d4-8002-9d5c566491e6" class="fills" rx="0" ry="0" style="fill: rgb(0, 0, 0);"><g id="shape-c0ef6847-c6cd-80d4-8002-9d5c56659a74"><g class="fills" id="fills-c0ef6847-c6cd-80d4-8002-9d5c56659a74"><path rx="0" ry="0" d="M363.051,536.938L307.193,536.938L320.496,499.246L292.755,482.788C288.417,480.191,283.074,480.610,279.322,483.747L265.163,495.542C255.184,503.864,243.882,508.510,232.479,508.984C219.660,509.580,208.601,505.363,202.113,497.562L166.245,459.544C158.965,452.274,154.627,450.989,140.226,456.919C137.554,458.017,134.650,460.028,131.559,462.160C125.024,466.666,117.623,471.776,107.858,471.776C89.696,471.776,78.106,463.761,73.973,460.307L39.855,430.676L37.993,429.038L76.077,536.939L18.615,536.939C13.467,536.939,9.306,541.109,9.306,546.248C9.306,551.387,13.467,555.556,18.615,555.556L82.649,555.556L82.649,555.557L300.621,555.557L300.621,555.556L363.050,555.556C368.198,555.556,372.359,551.386,372.359,546.247C372.359,541.108,368.199,536.938,363.051,536.938ZZZ" style="-webkit-print-color-adjust: exact; fill: rgb(239, 179, 219);"/></g></g></g></g></g></g></g><g id="shape-c0ef6847-c6cd-80d4-8002-9d5c5665e1fa" rx="0" ry="0" style="fill: rgb(0, 0, 0);"><g id="shape-c0ef6847-c6cd-80d4-8002-9d5c566637d8" class="fills" rx="0" ry="0" style="fill: rgb(0, 0, 0);"><g id="shape-c0ef6847-c6cd-80d4-8002-9d5c566884e2"><g class="fills" id="fills-c0ef6847-c6cd-80d4-8002-9d5c566884e2"><path rx="0" ry="0" d="M260.069,38.282C258.740,36.157,256.220,35.105,253.781,35.655C246.910,37.205,240.121,38.985,233.608,40.915C220.685,44.759,208.053,49.764,193.855,56.670C186.992,60.018,184.272,61.608,176.163,66.336L174.504,67.323C162.359,74.352,153.461,82.120,147.305,91.105C140.549,100.944,137.125,112.452,137.125,125.266C137.125,140.336,142.915,153.786,153.431,163.133C164.032,172.570,178.798,177.556,196.100,177.556C213.335,177.556,228.127,172.255,238.857,162.231C249.306,152.484,255.075,138.782,255.075,123.653C255.075,114.405,252.793,106.267,250.589,98.418C245.948,81.887,241.942,67.608,259.697,45.103C261.248,43.138,261.397,40.405,260.069,38.282ZZM182.462,38.304C163.833,28.143,139.137,23.929,138.094,23.755C135.294,23.294,132.564,24.900,131.596,27.577C130.853,29.751,131.393,32.160,132.993,33.806C144.729,46.301,145.105,59.252,143.553,72.509C143.470,73.209,143.841,73.885,144.475,74.189C145.105,74.490,145.858,74.357,146.347,73.856C152.388,67.749,159.753,62.196,168.610,57.066L170.261,56.104C178.407,51.343,181.441,49.568,188.728,46.020L189.719,45.539C190.186,45.315,190.502,44.861,190.550,44.343C190.598,43.826,190.373,43.321,189.955,43.013C187.565,41.276,185.062,39.703,182.462,38.304ZZM188.087,27.909C189.354,28.601,190.700,29.389,192.104,30.236C195.999,32.632,199.649,35.406,203.004,38.518C203.428,38.916,204.046,39.026,204.581,38.800C212.963,35.246,221.533,32.159,230.254,29.552C231.974,29.041,233.704,28.548,235.443,28.072C235.867,27.955,236.217,27.655,236.397,27.253C236.577,26.851,236.570,26.389,236.376,25.993C233.328,19.768,230.969,15.303,230.792,14.974C229.768,13.044,227.766,11.837,225.587,11.837C224.883,11.837,213.320,11.970,197.253,19.716C193.917,21.328,190.670,23.120,187.526,25.083C187.076,25.361,186.808,25.860,186.825,26.391C186.842,26.921,187.140,27.402,187.607,27.651ZM178.897,16.568C181.588,14.804,184.331,13.158,187.099,11.645C187.319,11.524,187.464,11.299,187.482,11.047C187.500,10.796,187.389,10.553,187.187,10.402C177.604,3.163,168.857,0.414,168.334,0.259C165.939,-0.475,163.345,0.388,161.861,2.412C159.152,6.191,156.774,10.198,154.755,14.389C154.658,14.588,154.655,14.821,154.747,15.022C154.840,15.223,155.017,15.373,155.230,15.429C160.247,16.749,166.067,18.495,172.042,20.715C172.261,20.797,172.506,20.769,172.701,20.641Z" style="-webkit-print-color-adjust: exact; fill: rgb(120, 138, 227);"/></g></g></g></g></g></svg>