<?xml version="1.0" encoding="iso-8859-1"?>
<!-- Uploaded to: SVG Repo, www.svgrepo.com, Generator: SVG Repo Mixer Tools -->
<svg fill="#000000" height="800px" width="800px" version="1.1" id="Layer_1" xmlns="http://www.w3.org/2000/svg" xmlns:xlink="http://www.w3.org/1999/xlink" 
	 viewBox="0 0 512.001 512.001" xml:space="preserve">
<g>
	<g>
		<g>
			<path d="M427.539,297.891H265.307V270.06c0-0.031,0.005-0.061,0.005-0.092c0-0.122-0.004-0.243-0.005-0.365v-27.99
				c52.12-4.721,93.096-48.652,93.096-101.972c0-5.148-4.17-9.318-9.318-9.318c-34.591,0-65.229,17.247-83.777,43.591v-44.377
				c26.379-4.446,46.546-27.433,46.546-55.064V27.89c0-15.379-12.511-27.89-27.89-27.89h-55.929c-15.379,0-27.89,12.511-27.89,27.89
				v46.583c0,27.631,20.161,50.619,46.545,55.064v81.613c-18.548-26.344-49.186-43.591-83.777-43.591
				c-5.148,0-9.318,4.17-9.318,9.318c0,53.32,40.976,97.251,93.096,101.972v19.042H84.453c-13.2,0-23.943,10.743-23.943,23.952v7.95
				c0,13.21,10.743,23.952,23.943,23.952h6.288l55.802,48.827c2.439,2.029,9.747,7.028,21.82,7.028
				c3.966,0,8.425-3.072,13.135-6.321c3.752-2.597,7.633-5.269,12.139-7.121c17.306-7.149,31.12-8.499,46.471,6.861l36.436,38.642
				c3.1,3.686,8.806,5.446,15.667,5.167c9.197-0.391,16.794-5.185,21.541-9.142l14.15-11.795c9.84-8.201,23.822-9.29,34.816-2.7
				l18.022,10.435l6.656,3.966l29.595-83.848h10.547c13.2,0,23.952-10.743,23.952-23.952v-7.95
				C451.491,308.634,440.739,297.891,427.539,297.891z M339.198,149.527c-3.822,32.434-26.256,59.24-56.288,69.451l16.906-16.906
				c3.64-3.64,3.64-9.523,0-13.163c-3.64-3.64-9.523-3.64-13.163,0l-16.911,16.911C279.949,175.783,306.769,153.357,339.198,149.527
				z M218.762,74.473V27.89c0-5.111,4.161-9.272,9.272-9.272h55.929c5.111,0,9.272,4.161,9.272,9.272v46.583
				c0,20.536-16.701,37.236-37.236,37.236C235.463,111.709,218.762,95.009,218.762,74.473z M172.798,186.764
				c32.464,3.834,59.304,26.304,69.487,56.39l-17.072-17.017c-3.64-3.63-9.533-3.621-13.163,0.019
				c-3.621,3.64-3.612,9.532,0.019,13.163l16.92,16.866C199.005,245.948,176.615,219.163,172.798,186.764z M432.873,329.793
				c0,2.942-2.392,5.334-5.334,5.334H84.453c-2.932,0-5.325-2.392-5.325-5.334v-7.95c0-2.942,2.392-5.334,5.325-5.334h343.086
				c2.942,0,5.334,2.392,5.334,5.334V329.793z"/>
			<path d="M423.561,493.382h-55.858l13.303-37.692l-27.741-16.458c-4.338-2.597-9.681-2.178-13.433,0.959l-14.159,11.795
				c-9.979,8.322-21.281,12.968-32.684,13.442c-12.819,0.596-23.878-3.621-30.366-11.422l-35.868-38.018
				c-7.28-7.27-11.618-8.555-26.019-2.625c-2.672,1.098-5.576,3.109-8.667,5.241c-6.535,4.506-13.936,9.616-23.701,9.616
				c-18.162,0-29.752-8.015-33.885-11.469l-34.118-29.631l-1.862-1.638l38.084,107.901H79.125c-5.148,0-9.309,4.17-9.309,9.309
				S73.977,512,79.125,512h64.034l0,0.001h217.972l0-0.001h62.429c5.148,0,9.309-4.17,9.309-9.309S428.709,493.382,423.561,493.382z
				"/>
		</g>
	</g>
</g>
</svg>